<?xml version="1.0" encoding="UTF-8" standalone="no"?>
<!-- Created with Inkscape (http://www.inkscape.org/) -->

<svg
   xmlns:dc="http://purl.org/dc/elements/1.1/"
   xmlns:cc="http://creativecommons.org/ns#"
   xmlns:rdf="http://www.w3.org/1999/02/22-rdf-syntax-ns#"
   xmlns:svg="http://www.w3.org/2000/svg"
   xmlns="http://www.w3.org/2000/svg"
   xmlns:sodipodi="http://sodipodi.sourceforge.net/DTD/sodipodi-0.dtd"
   xmlns:inkscape="http://www.inkscape.org/namespaces/inkscape"
   id="svg3336"
   version="1.1"
   inkscape:version="0.91 r13725"
   xml:space="preserve"
   width="472.95499"
   height="83.691254"
   viewBox="0 0 472.95499 83.691254"
   sodipodi:docname="Bukalapak typeface.svg"><metadata
     id="metadata3342"><rdf:RDF><cc:Work
         rdf:about=""><dc:format>image/svg+xml</dc:format><dc:type
           rdf:resource="http://purl.org/dc/dcmitype/StillImage" /><dc:title></dc:title></cc:Work></rdf:RDF></metadata><defs
     id="defs3340"><clipPath
       clipPathUnits="userSpaceOnUse"
       id="clipPath3376"><path
         d="M 0,800 1280,800 1280,0 0,0 0,800 Z"
         id="path3378"
         inkscape:connector-curvature="0" /></clipPath><clipPath
       clipPathUnits="userSpaceOnUse"
       id="clipPath3482"><path
         d="M 0,800 1280,800 1280,0 0,0 0,800 Z"
         id="path3484"
         inkscape:connector-curvature="0" /></clipPath></defs><sodipodi:namedview
     pagecolor="#ffffff"
     bordercolor="#666666"
     borderopacity="1"
     objecttolerance="10"
     gridtolerance="10"
     guidetolerance="10"
     inkscape:pageopacity="0"
     inkscape:pageshadow="2"
     inkscape:window-width="1366"
     inkscape:window-height="705"
     id="namedview3338"
     showgrid="false"
     fit-margin-top="5"
     fit-margin-left="5"
     fit-margin-right="5"
     fit-margin-bottom="5"
     inkscape:zoom="0.476"
     inkscape:cx="565.86125"
     inkscape:cy="-112.40377"
     inkscape:window-x="-8"
     inkscape:window-y="-8"
     inkscape:window-maximized="1"
     inkscape:current-layer="g3344" /><g
     id="g3344"
     inkscape:groupmode="layer"
     inkscape:label="Bukalapak typeface"
     transform="matrix(1.25,0,0,-1.25,-234.13875,696.095)"><g
       id="g3372"><g
         id="g3374"
         clip-path="url(#clipPath3376)"><g
           id="g3380"
           transform="translate(255.899,513.493)"><path
             d="M 0,0 C 0.178,0 0.322,0.144 0.322,0.319 0.322,0.499 0.178,0.643 0,0.643 -0.18,0.643 -0.321,0.499 -0.321,0.319 -0.321,0.144 -0.18,0 0,0"
             style="fill:#c30d42;fill-opacity:1;fill-rule:nonzero;stroke:none"
             id="path3382"
             inkscape:connector-curvature="0" /></g><g
           id="g3384"
           transform="translate(255.278,513.493)"><path
             d="M 0,0 C 0.179,0 0.322,0.144 0.322,0.319 0.322,0.499 0.179,0.643 0,0.643 -0.179,0.643 -0.323,0.499 -0.323,0.319 -0.323,0.144 -0.179,0 0,0"
             style="fill:#c30d42;fill-opacity:1;fill-rule:nonzero;stroke:none"
             id="path3386"
             inkscape:connector-curvature="0" /></g><g
           id="g3388"
           transform="translate(217.283,505.802)"><path
             d="m 0,0 -0.038,0 -10.325,0 c -0.91,0 -1.646,0.734 -1.646,1.644 l 0.004,8.096 c 0,0.813 0.679,1.623 1.646,1.619 l 10.321,0 0.038,0 c 3.798,0 6.877,-2.545 6.877,-5.68 C 6.877,2.542 3.798,0 0,0 m -10.35,35.015 0.013,0 9.209,0 0,-0.008 C 2.5,34.85 5.383,32.383 5.383,29.364 c 0,-3.02 -2.883,-5.485 -6.511,-5.643 l 0,-0.009 -9.21,0.003 c -0.909,0 -1.645,0.734 -1.645,1.643 l -0.022,8.086 c 0.037,0.874 0.769,1.571 1.655,1.571 M 15.593,20.713 c 2.422,3.042 3.89,7.242 3.506,12.209 -0.455,5.686 -3.304,9.367 -7.558,11.64 -4.463,2.366 -10.28,2.512 -17.052,2.512 l -18.818,0 c -0.908,0 -1.643,-0.736 -1.643,-1.647 l 0,-55.547 c 0,-0.902 0.722,-1.633 1.625,-1.645 l 20.121,0 c 3.655,0 7.052,-0.041 10.094,0.44 4.231,0.692 7.703,2.21 10.232,4.622 0.626,0.53 8.519,7.506 5.042,19.321 0,0 -1.263,4.469 -5.549,8.095"
             style="fill:#c30d42;fill-opacity:1;fill-rule:nonzero;stroke:none"
             id="path3390"
             inkscape:connector-curvature="0" /></g><g
           id="g3392"
           transform="translate(280.908,547.655)"><path
             d="m 0,0 -10.695,0 c -0.868,0 -1.625,-0.733 -1.625,-1.645 l 0,-32.151 c -1.301,-0.578 -2.552,-1.084 -4.527,-1.427 -1.138,-0.206 -2.584,-0.385 -3.9,-0.312 -3.341,0.385 -3.893,3.284 -3.893,3.284 l -0.008,-0.013 c -0.438,1.95 -0.408,4.493 -0.507,6.535 -0.152,3.105 0,6.231 0,9.067 l 0,15.017 c 0,0.894 -0.732,1.645 -1.65,1.645 L -37.5,0 c -0.867,0 -1.623,-0.733 -1.623,-1.645 l 0,-21.339 c 0,-3.157 0.05,-6.184 0.319,-8.978 1.055,-9.078 8.767,-16.124 18.124,-16.124 1.133,0 2.242,0.104 3.318,0.304 l 0,-0.005 c 0.326,0.063 0.646,0.127 0.961,0.201 3.176,0.771 15.045,5.278 18.049,6.326 l 0,39.615 C 1.648,-0.751 0.918,0 0,0"
             style="fill:#c30d42;fill-opacity:1;fill-rule:nonzero;stroke:none"
             id="path3394"
             inkscape:connector-curvature="0" /></g><g
           id="g3396"
           transform="translate(315.633,535.131)"><path
             d="m 0,0 c -0.042,-0.005 -2.263,0.175 -3.718,-1.849 -2.946,-4.142 -8.163,-11.744 -8.169,-11.748 -0.182,-0.271 -0.492,-0.45 -0.843,-0.45 -0.564,0 -1.031,0.454 -1.031,1.015 l 0,0.04 0,28.746 c -0.004,0.906 -0.737,1.638 -1.643,1.638 l -0.02,0 -10.566,0 -0.128,0 c -0.867,0 -1.624,-0.737 -1.624,-1.645 l 0,-55.19 c 0,0 0,-1.765 1.644,-1.765 l 10.674,0 c 0.919,0 1.65,0.752 1.65,1.645 l 0,9.16 0.003,0.055 c 0,0.562 0.455,1.019 1.015,1.019 0.353,0 0.664,-0.181 0.846,-0.453 2.338,-2.968 5.489,-7.173 7.542,-9.507 0.004,-0.002 1.521,-1.919 3.603,-1.919 l 14.001,0 -15.26,19.749 L 13.236,0 0,0 Z"
             style="fill:#c30d42;fill-opacity:1;fill-rule:nonzero;stroke:none"
             id="path3398"
             inkscape:connector-curvature="0" /></g><g
           id="g3400"
           transform="translate(416.864,514.597)"><path
             d="m 0,0 c 0.036,-0.801 -0.557,-1.457 -1.33,-1.579 l -0.199,-0.016 c -0.018,0 -0.037,-0.006 -0.055,-0.006 l 0.024,0 -3.811,-0.357 c -0.258,-0.048 -0.525,-0.076 -0.799,-0.076 -2.37,0 -4.293,1.92 -4.293,4.288 0,2.369 1.923,4.291 4.293,4.291 L 0,7.133 0,0 Z m 19.268,-4.881 -0.512,0.032 c -3.441,0.112 -4.472,1.184 -4.784,2.611 -0.101,0.451 -0.067,2.514 -0.067,3.226 l 0,15.81 c 0,6.139 -0.948,10.538 -4.33,13.711 -3.226,3.037 -9.13,3.692 -15.274,3.314 -1.879,-0.106 -3.724,-0.267 -5.54,-0.463 -3.776,-0.402 -4.89,-0.604 -6.715,-0.876 -2.142,-0.352 -3.226,-1.888 -3.563,-3.207 -0.145,-0.563 -0.15,-1.085 -0.105,-1.479 l 0.445,-9.257 0.004,-0.085 0.005,-0.123 c 0,0 0.328,0.015 0,-0.04 4.635,0.773 5.193,1.035 11.583,1.875 2.202,0.289 7.512,0.894 8.692,0.141 1.056,-0.656 0.992,-1.179 0.9,-2.829 -4.522,-0.509 -8.962,-0.489 -12.884,-1.284 -3.943,-0.811 -7.068,-2.486 -9.083,-5.302 -2.001,-2.849 -2.761,-7.189 -2.222,-11.75 0.33,-2.76 1.287,-5.468 2.999,-7.678 0.873,-1.126 1.972,-1.859 3.211,-2.561 2.631,-1.489 5.708,-2.235 8.701,-2.363 0.812,-0.035 1.878,0.03 2.665,0.132 0.889,0.115 1.728,0.291 2.564,0.507 1.613,0.457 3.651,1.258 5.654,2.656 l 0.234,-0.197 c 3.718,-3.085 10.421,-5.397 16.91,-3.19 l 0.512,0.158 0,8.511 z"
             style="fill:#c30d42;fill-opacity:1;fill-rule:nonzero;stroke:none"
             id="path3402"
             inkscape:connector-curvature="0" /></g><g
           id="g3404"
           transform="translate(495.259,511.25)"><path
             d="m 0,0 6.17,0.59 0,-7.134 C 6.206,-7.346 5.616,-8.002 4.841,-8.121 L 4.642,-8.14 c -0.018,0 -0.038,-0.006 -0.056,-0.006 l 0.027,0 -3.812,-0.358 C 0.542,-8.552 0.274,-8.578 0,-8.578 c -2.37,0 -4.291,1.919 -4.291,4.289 C -4.291,-1.92 -2.37,0 0,0 m -10.418,-17.327 40.395,0 -4.539,5.901 -0.513,0.031 c -3.439,0.113 -4.472,1.186 -4.783,2.611 -0.098,0.451 -0.067,2.514 -0.067,3.229 l 0,15.808 c 0,6.139 -0.948,10.538 -4.329,13.71 -3.225,3.039 -9.13,3.694 -15.273,3.314 -1.881,-0.106 -3.726,-0.266 -5.541,-0.46 l 0,-0.001 c -3.778,-0.402 -4.89,-0.604 -6.716,-0.878 -2.14,-0.349 -3.225,-1.886 -3.562,-3.206 -0.146,-0.563 -0.152,-1.085 -0.105,-1.479 l 0.443,-9.255 0.004,-0.088 0.009,-0.123 c 0,0 0.325,0.017 0,-0.037 4.632,0.771 5.193,1.032 11.581,1.873 2.202,0.29 7.513,0.894 8.693,0.139 1.053,-0.655 0.989,-1.177 0.9,-2.825 -4.523,-0.512 -8.964,-0.49 -12.886,-1.285 -3.942,-0.811 -7.071,-2.485 -9.082,-5.304 -2.002,-2.848 -2.761,-7.186 -2.223,-11.749 0.329,-2.76 1.287,-5.467 2.999,-7.677 0.747,-0.961 2.683,-2.249 4.595,-2.249"
             style="fill:#c30d42;fill-opacity:1;fill-rule:nonzero;stroke:none"
             id="path3406"
             inkscape:connector-curvature="0" /></g><g
           id="g3408"
           transform="translate(548.438,535.131)"><path
             d="m 0,0 c -0.041,-0.005 -2.263,0.175 -3.718,-1.849 -2.946,-4.142 -8.163,-11.744 -8.167,-11.748 -0.184,-0.271 -0.495,-0.45 -0.846,-0.45 -0.562,0 -1.029,0.454 -1.029,1.015 l 0,0.04 0,28.746 c -0.007,0.906 -0.739,1.638 -1.645,1.638 l -0.017,0 -10.569,0 -0.127,0 c -0.868,0 -1.624,-0.737 -1.624,-1.645 l 0,-55.19 c 0,0 0,-1.765 1.643,-1.765 l 10.677,0 c 0.917,0 1.65,0.752 1.65,1.645 l 0,9.16 10e-4,0.055 c 0,0.562 0.454,1.019 1.017,1.019 0.351,0 0.662,-0.181 0.844,-0.453 2.335,-2.968 5.491,-7.173 7.541,-9.507 0.005,-0.002 1.521,-1.919 3.605,-1.919 l 14.001,0 L -2.022,-21.459 13.237,0 0,0 Z"
             style="fill:#c30d42;fill-opacity:1;fill-rule:nonzero;stroke:none"
             id="path3410"
             inkscape:connector-curvature="0" /></g><g
           id="g3412"
           transform="translate(458.581,522.365)"><path
             d="m 0,0 c -1.737,-1.079 -4.495,-0.94 -7.256,-0.938 l -1.488,0 0.01,16.257 c 1.71,0.355 3.123,0.687 4.949,0.802 C 1.732,16.469 2.422,12.785 2.651,8.396 2.836,4.78 2.41,1.476 0,0 M 16.048,14.795 C 14.799,23.229 11.4,29.006 2.822,30.103 c -8.445,1.083 -16.838,-1.671 -24.41,-5.198 -0.124,-0.073 -0.315,-0.185 -0.427,-0.291 -0.367,-0.302 -0.61,-0.76 -0.61,-1.275 l 0,-30.452 0,-5.516 0,-8.559 0,-2.868 0,-2.623 c 0,-0.91 0.758,-1.646 1.623,-1.646 l 10.697,0 c 0.917,0 1.648,0.752 1.648,1.646 l 0.004,12.091 c 4.104,-0.445 8.384,-0.381 11.837,0.427 7.543,1.758 11.916,7.409 12.956,15.587 0.567,4.107 0.567,8.995 -0.092,13.369"
             style="fill:#c30d42;fill-opacity:1;fill-rule:nonzero;stroke:none"
             id="path3414"
             inkscape:connector-curvature="0" /></g><g
           id="g3416"
           transform="translate(349.923,516.656)"><path
             d="m 0,0 c 0.035,-0.802 -0.558,-1.457 -1.331,-1.578 l -0.2,-0.018 c -0.018,0 -0.038,-0.006 -0.054,-0.006 l 0.024,0 -3.812,-0.358 c -0.258,-0.048 -0.527,-0.074 -0.801,-0.074 -2.37,0 -4.292,1.92 -4.292,4.288 0,2.369 1.922,4.29 4.292,4.29 L 0,7.133 0,0 Z m 54.938,-14.15 -6.442,2.626 -2.865,1.052 c 0.029,-0.038 0.05,-0.076 0.078,-0.112 0.071,-0.091 0.148,-0.177 0.222,-0.262 l -12.612,-0.011 0,45.204 c 0,0 -0.067,1.556 -1.662,1.556 l -10.633,0 c 0,0 -1.7,-0.006 -1.7,-1.678 l 0,-16.464 c 0.004,-4.303 0.005,-8.643 0,-12.895 l 0,-9.746 -0.06,0 -0.512,0.031 c -3.439,0.111 -4.473,1.183 -4.783,2.61 -0.1,0.452 -0.068,2.513 -0.068,3.227 l 0,15.81 c 0,6.137 -0.945,10.537 -4.329,13.711 -3.223,3.035 -9.127,3.693 -15.272,3.314 -1.882,-0.107 -3.726,-0.268 -5.54,-0.46 l 0,-0.003 c -3.776,-0.402 -4.893,-0.604 -6.715,-0.878 -2.144,-0.35 -3.227,-1.885 -3.566,-3.207 -0.144,-0.561 -0.148,-1.085 -0.104,-1.478 l 0.443,-9.255 0.004,-0.087 0.009,-0.124 c 0,0 0.326,0.018 0,-0.036 4.633,0.771 5.192,1.032 11.583,1.872 2.199,0.291 7.511,0.893 8.691,0.141 1.054,-0.656 0.989,-1.179 0.9,-2.826 -4.522,-0.513 -8.963,-0.491 -12.883,-1.286 -3.944,-0.811 -7.071,-2.484 -9.083,-5.303 -2.002,-2.847 -2.762,-7.189 -2.224,-11.749 0.331,-2.76 1.288,-5.467 3.001,-7.679 0.871,-1.124 1.972,-1.858 3.209,-2.561 2.634,-1.488 5.709,-2.233 8.704,-2.362 0.808,-0.037 1.875,0.03 2.661,0.133 0.89,0.116 1.729,0.289 2.565,0.504 1.613,0.459 3.65,1.258 5.653,2.658 l 0.236,-0.196 10e-4,0 c 3.717,-3.086 10.418,-5.396 16.907,-3.193 l 0.572,0.179 0,-4.141 0.015,0 0,-3.653 c 0.056,-0.859 0.765,-1.535 1.635,-1.54 l 33.112,0 c 0.816,0.039 1.481,0.666 1.562,1.472 0.023,0.503 0.048,1.053 0.071,1.633 l 0,4.264 c 0.263,-0.036 0.527,-0.046 0.795,-0.072 l -1.576,1.26 z"
             style="fill:#c30d42;fill-opacity:1;fill-rule:nonzero;stroke:none"
             id="path3418"
             inkscape:connector-curvature="0" /></g><g
           id="g3422"
           transform="translate(228.498,254.775)" /><g
           id="g3426"
           transform="translate(289.597,294.968)" /><g
           id="g3430"
           transform="translate(501.362,253.724)" /><g
           id="g3434"
           transform="translate(460.214,270.682)" /></g></g></g></svg>